<?xml version="1.0" encoding="UTF-8"?>
<svg xmlns="http://www.w3.org/2000/svg" xmlns:xlink="http://www.w3.org/1999/xlink">
  <symbol id="ic_sound" viewBox="0 0 24 24">
    <path fill="currentColor" d="M3 9v6h4l5 4V5L7 9H3z"/>
    <path fill="currentColor" d="M16.5 8.5a4.5 4.5 0 010 7 0.75 0.75 0 0 1-1.1-1 3 3 0 000-5 0.75 0.75 0 011.1-1z"/>
  </symbol>

  <symbol id="ic_video" viewBox="0 0 24 24">
    <rect x="2" y="5" width="20" height="14" rx="2" fill="currentColor"/>
    <polygon fill="#ffffff" points="10,8 16,12 10,16"/>
  </symbol>

  <symbol id="ic_music" viewBox="0 0 24 24">
    <path fill="currentColor" d="M12 3v10.55A4 4 0 1 0 14 17V7h4V3h-6z"/>
  </symbol>

  <symbol id="ic_hearing" viewBox="0 0 24 24">
    <path fill="currentColor" d="M12 3C7 3 4 7 4 11c0 5 5 9 8 9s5-3 5-6c0-2-1-4-2-5"/>
    <path fill="currentColor" d="M14.5 11a2.5 2.5 0 11-5 0 2.5 2.5 0 015 0z"/>
  </symbol>
</svg>
